<svg width="32" height="32" viewBox="0 0 32 32" fill="none" xmlns="http://www.w3.org/2000/svg">
<path d="M15.639 5.64169L24.7684 11.0639V24.1788H21.6719C21.3412 22.9397 20.6396 21.8535 19.6928 21.0467C18.6001 20.1148 17.1842 19.5518 15.639 19.5518C14.0937 19.5518 12.6779 20.1148 11.5851 21.0467C10.6389 21.8535 9.9367 22.9397 9.60601 24.1788H6.5095V11.0644L15.6385 5.64219L15.639 5.64169ZM15.639 21.0598C16.8148 21.0598 17.8884 21.485 18.7143 22.1898C19.5554 22.907 20.1423 23.9114 20.3215 25.0479L20.4222 25.6868H26.2785V10.0922L15.639 4L5 10.0922V25.6868H10.8563L10.957 25.0479C11.1356 23.9114 11.7225 22.907 12.5641 22.1898C13.3901 21.4855 14.4637 21.0598 15.639 21.0598ZM15.639 28C16.9184 28 17.9558 26.9645 17.9558 25.6873C17.9558 24.41 16.919 23.374 15.639 23.374C14.359 23.374 13.3226 24.4095 13.3226 25.6873C13.3226 26.965 14.3595 28 15.639 28ZM21.6719 12.9388C19.6767 11.6359 17.6664 10.9618 15.642 10.9463H15.636C13.6115 10.9618 11.6017 11.6359 9.60601 12.9388L10.0182 14.4744C11.9078 13.1489 13.7822 12.4623 15.639 12.4477C17.4958 12.4628 19.3702 13.1489 21.2597 14.4744L21.6719 12.9388ZM10.9056 16.5454C12.4735 15.7396 14.0505 15.3229 15.636 15.3114H15.642C17.2275 15.3234 18.8044 15.7396 20.3723 16.5454L19.9732 18.0348C18.5191 17.2365 17.0735 16.8244 15.639 16.8128C14.2045 16.8244 12.7594 17.2365 11.3053 18.0348L10.9056 16.5454Z" fill="#1B85F3"/>
</svg>
